<?xml version="1.0" encoding="UTF-8" standalone="no"?>
<svg
   xmlns:dc="http://purl.org/dc/elements/1.1/"
   xmlns:cc="http://creativecommons.org/ns#"
   xmlns:rdf="http://www.w3.org/1999/02/22-rdf-syntax-ns#"
   xmlns:svg="http://www.w3.org/2000/svg"
   xmlns="http://www.w3.org/2000/svg"
   xmlns:sodipodi="http://sodipodi.sourceforge.net/DTD/sodipodi-0.dtd"
   xmlns:inkscape="http://www.inkscape.org/namespaces/inkscape"
   sodipodi:docname="2020-08-09-interrogating-the-brief.svg"
   inkscape:version="1.0 (4035a4fb49, 2020-05-01)"
   id="svg8"
   version="1.1"
   viewBox="0 0 338.66667 190.5"
   height="720"
   width="1280">
  <defs
     id="defs2" />
  <sodipodi:namedview
     inkscape:window-maximized="1"
     inkscape:window-y="1072"
     inkscape:window-x="-8"
     inkscape:window-height="1377"
     inkscape:window-width="2560"
     units="px"
     showgrid="false"
     inkscape:document-rotation="0"
     inkscape:current-layer="layer1"
     inkscape:document-units="mm"
     inkscape:cy="33.823748"
     inkscape:cx="585.02507"
     inkscape:zoom="0.175"
     inkscape:pageshadow="2"
     inkscape:pageopacity="0.0"
     borderopacity="1.0"
     bordercolor="#666666"
     pagecolor="#ffffff"
     id="base" />
  <metadata
     id="metadata5">
    <rdf:RDF>
      <cc:Work
         rdf:about="">
        <dc:format>image/svg+xml</dc:format>
        <dc:type
           rdf:resource="http://purl.org/dc/dcmitype/StillImage" />
        <dc:title></dc:title>
      </cc:Work>
    </rdf:RDF>
  </metadata>
  <g
     id="layer1"
     inkscape:groupmode="layer"
     inkscape:label="Layer 1">
    <rect
       y="-15.768902"
       x="-19.510675"
       height="211.67747"
       width="378.45364"
       id="rect35"
       style="fill:#1a1a1a;stroke-width:0.264583" />
    <rect
       y="-19.777945"
       x="-26.994225"
       height="169.71614"
       width="403.30972"
       id="rect960"
       style="fill:#00444e;fill-opacity:1;stroke:none;stroke-width:0.264583;stroke-opacity:1" />
    <rect
       y="0.8018086"
       x="208.7375"
       height="226.64456"
       width="124.28033"
       id="rect962"
       style="fill:#1e2d30;fill-opacity:1;stroke:none;stroke-width:0.264583;stroke-opacity:1" />
    <g
       transform="matrix(0.07696161,0.42300301,-0.42300301,0.07696161,246.81045,-52.475948)"
       id="g952">
      <path
         style="fill:#ecca9a;fill-opacity:1;stroke:#dddd16;stroke-width:0.264583px;stroke-linecap:butt;stroke-linejoin:miter;stroke-opacity:1"
         d="m 174.35429,396.49878 c 0,0 0,-267.80406 0,-281.70208 0,-13.89802 3.47448,-13.09621 7.75081,-13.09621 4.2763,0 107.97688,0 114.92587,0 6.94902,0 1.60364,13.36348 6.94902,13.36348 5.3454,0 214.88473,0 225.04097,0 10.15622,0 9.88896,7.75082 9.88896,11.75986 0,4.00904 1.06908,269.67497 1.06908,269.67497 z"
         id="path876-1-0" />
      <rect
         style="fill:#fafafa;fill-opacity:1;stroke:none;stroke-width:0.264583;stroke-opacity:1"
         id="rect931"
         width="357.16663"
         height="266.6058"
         x="178.57907"
         y="126.18887" />
      <path
         style="fill:#f9edd5;fill-opacity:1;stroke:none;stroke-width:0.264583px;stroke-linecap:butt;stroke-linejoin:miter;stroke-opacity:1"
         d="m 539.97902,396.4988 8.04071,-257.38057 c 0,0 -2.7814,-13.63075 -9.99767,-13.63075 H 315.38652 c -7.75082,0 -1.5784,13.726 -8.35353,13.726 H 194.68642 c -14.1653,0 -13.10975,17.54454 -13.10975,17.54454 l -7.22238,239.74076 z"
         id="path874-5-2"
         sodipodi:nodetypes="ccssssccc" />
      <rect
         y="268.26675"
         x="214.9299"
         height="104.15672"
         width="51.410286"
         id="rect931-9"
         style="fill:#f8aaa9;fill-opacity:1;stroke:none;stroke-width:0.0627423;stroke-opacity:1"
         transform="matrix(1,0,-0.03122534,0.99951237,0,0)" />
    </g>
    <path
       transform="scale(0.26458333)"
       d="M 192.93945 610.13281 L -104.04492 760.64453 C -104.04492 761.65469 639.42578 768.72656 639.42578 768.72656 C 639.42578 768.72656 1382.8984 761.65469 1382.8984 760.64453 L 1085.9141 610.13281 L 639.42578 610.13281 L 192.93945 610.13281 z "
       style="fill:#666666;stroke:none;stroke-width:0.999999px;stroke-linecap:butt;stroke-linejoin:miter;stroke-opacity:1"
       id="path18" />
    <path
       style="fill:#ecca9a;stroke:#dddd16;stroke-width:0.264583px;stroke-linecap:butt;stroke-linejoin:miter;stroke-opacity:1;fill-opacity:1"
       d="m -411.96878,378.85898 c 0,0 0,-267.80405 0,-281.702069 0,-13.89802 3.47448,-13.09621 7.75081,-13.09621 4.2763,0 107.97688,0 114.92587,0 6.94902,0 1.60364,13.36348 6.94902,13.36348 5.3454,0 214.884708,0 225.040948,0 10.15624,0 9.88896,7.750819 9.88896,11.759859 0,4.00904 1.0691,269.67496 1.0691,269.67496 z"
       id="path876-1" />
    <path
       style="fill:#f9edd5;stroke:none;stroke-width:0.264583px;stroke-linecap:butt;stroke-linejoin:miter;stroke-opacity:1;fill-opacity:1"
       d="M -46.344072,378.859 V 121.47844 c 0,0 -3.20725,-13.63075 -10.42352,-13.63075 H -279.40311 c -7.75082,0 -1.14959,13.726 -7.92472,13.726 H -399.6744 c -14.1653,0 -12.56166,17.54454 -12.56166,17.54454 l 0.26727,239.74075 z"
       id="path874-5"
       sodipodi:nodetypes="ccssssccc" />
    <ellipse
       ry="29.533283"
       rx="125.24483"
       cy="202.99121"
       cx="169.07703"
       id="path954"
       style="fill:#f5eeac;fill-opacity:0.21371;stroke:none;stroke-width:0.195561;stroke-opacity:1" />
    <path
       id="path964"
       d="M -1.3363476,198.58126 25.925144,182.81235 91.673446,181.74328 68.153729,207.66842 -3.7417734,207.40115 Z"
       style="fill:#714933;stroke:none;stroke-width:0.264583px;stroke-linecap:butt;stroke-linejoin:miter;stroke-opacity:1;fill-opacity:1" />
    <path
       id="path966"
       d="m 91.673446,181.74328 v 13.36347 L 74.03366,224.5064 68.153729,207.66842 Z"
       style="fill:#5f3d2b;stroke:none;stroke-width:0.264583px;stroke-linecap:butt;stroke-linejoin:miter;stroke-opacity:1;fill-opacity:1" />
    <path
       transform="scale(0.26458333)"
       d="M 346.48242 686.9043 L 331.0332 687.09766 A 424.10192 100.0051 0 0 0 225.66211 753.06836 A 424.10192 100.0051 0 0 0 302.61914 810.51758 L 346.48242 737.41211 L 346.48242 686.9043 z "
       style="fill:#f5eeac;fill-opacity:0.21371;stroke:none;stroke-width:0.662207;stroke-opacity:1"
       id="path954-5" />
  </g>
</svg>
